REM DIRINDEX 1\2,1\3
REM DIRNAME cjc052,folder01,folder02
TITLE ""
FILE "Disk2Track57.mp3" MP3
  TRACK 01 AUDIO
    TITLE "2:cjc052_0935"
    INDEX 01 00:00:00
  TRACK 02 AUDIO
    TITLE "2:cjc052_0936"
    INDEX 01 00:13:35
  TRACK 03 AUDIO
    TITLE "2:cjc052_0937"
    INDEX 01 00:23:59
  TRACK 04 AUDIO
    TITLE "2:cjc052_0938"
    INDEX 01 00:37:10
  TRACK 05 AUDIO
    TITLE "2:cjc052_0939"
    INDEX 01 00:44:61
  TRACK 06 AUDIO
    TITLE "0:"
    INDEX 01 00:59:65
